<?xml version="1.0" encoding="UTF-8"?>
<svg version="1.1" xmlns="http://www.w3.org/2000/svg" width="180" height="180">
<path d="M0 0 C1.91015625 0.23046875 1.91015625 0.23046875 3.91015625 2.23046875 C3.91015625 3.22046875 3.91015625 4.21046875 3.91015625 5.23046875 C4.73515625 5.30523438 5.56015625 5.38 6.41015625 5.45703125 C19.56817908 6.95493117 31.21822659 11.21531095 42.578125 18.03125 C45.04437893 19.29949113 47.20241673 19.71196544 49.91015625 20.23046875 C54.32504984 23.17373114 55.27451961 27.32355883 56.91015625 32.23046875 C57.57015625 32.23046875 58.23015625 32.23046875 58.91015625 32.23046875 C71.60362514 47.2909099 78.91270794 64.52226599 79.91015625 84.23046875 C80.85890625 84.20984375 81.80765625 84.18921875 82.78515625 84.16796875 C85.91015625 84.23046875 85.91015625 84.23046875 87.91015625 85.23046875 C87.93703776 86.87621441 87.95649748 88.52208288 87.97265625 90.16796875 C87.98425781 91.08449219 87.99585938 92.00101562 88.0078125 92.9453125 C87.91015625 95.23046875 87.91015625 95.23046875 86.91015625 96.23046875 C84.57718192 96.27139812 82.243104 96.27288598 79.91015625 96.23046875 C79.82378906 97.22304687 79.73742187 98.215625 79.6484375 99.23828125 C77.84089948 117.56117606 71.08792452 132.02336125 59.87109375 146.51953125 C57.64641452 149.59508381 56.39365125 152.74748048 54.91015625 156.23046875 C53.0207423 158.80500803 51.0215752 161.2598004 48.984375 163.71875 C46.16689911 167.13049576 43.53560367 170.67020293 40.91015625 174.23046875 C35.12653052 172.34742781 35.12653052 172.34742781 32.59765625 170.98046875 C29.34444271 170.0725952 27.08740487 170.67628385 23.8671875 171.515625 C19.89011107 172.47705827 15.87858648 173.16043765 11.84765625 173.85546875 C11.07260742 173.99041748 10.29755859 174.12536621 9.49902344 174.2644043 C7.63637957 174.58822481 5.77331154 174.90960389 3.91015625 175.23046875 C3.76578125 175.86984375 3.62140625 176.50921875 3.47265625 177.16796875 C2.91015625 179.23046875 2.91015625 179.23046875 1.91015625 180.23046875 C-3.82595486 180.5036169 -3.82595486 180.5036169 -6.08984375 180.23046875 C-6.74984375 179.57046875 -7.40984375 178.91046875 -8.08984375 178.23046875 C-8.08984375 177.24046875 -8.08984375 176.25046875 -8.08984375 175.23046875 C-8.99605469 175.12089844 -9.90226562 175.01132813 -10.8359375 174.8984375 C-22.0035539 173.44487473 -22.0035539 173.44487473 -27.08984375 171.54296875 C-30.81474653 170.18658086 -33.2093658 170.02320894 -37.08984375 171.23046875 C-38.12109375 171.78734375 -39.15234375 172.34421875 -40.21484375 172.91796875 C-43.08984375 174.23046875 -43.08984375 174.23046875 -45.10131836 173.52099609 C-47.21162301 172.15143558 -48.33114262 170.93628688 -49.78125 168.89453125 C-50.25111328 168.24226562 -50.72097656 167.59 -51.20507812 166.91796875 C-51.68267578 166.23734375 -52.16027344 165.55671875 -52.65234375 164.85546875 C-53.61196432 163.51431229 -54.57159933 162.17316617 -55.53125 160.83203125 C-56.1970105 159.8874707 -56.1970105 159.8874707 -56.8762207 158.92382812 C-57.85169504 157.5627559 -58.87732737 156.23770094 -59.91796875 154.92578125 C-61.49693607 152.64154186 -61.31568979 150.94062117 -61.08984375 148.23046875 C-61.97671875 148.91109375 -62.86359375 149.59171875 -63.77734375 150.29296875 C-67.08984375 152.23046875 -67.08984375 152.23046875 -69.77734375 152.16796875 C-72.34252689 151.12802964 -73.56869788 150.5522177 -75.08984375 148.23046875 C-75.52734375 145.35546875 -75.52734375 145.35546875 -75.08984375 142.23046875 C-73.80684697 140.52475048 -72.47774442 138.85197647 -71.08984375 137.23046875 C-71.6209375 136.22628906 -72.15203125 135.22210938 -72.69921875 134.1875 C-79.13877408 121.81064726 -83.58060771 110.36176879 -84.08984375 96.23046875 C-85.03859375 96.25109375 -85.98734375 96.27171875 -86.96484375 96.29296875 C-90.08984375 96.23046875 -90.08984375 96.23046875 -92.08984375 95.23046875 C-92.08984375 91.93046875 -92.08984375 88.63046875 -92.08984375 85.23046875 C-89.3810504 83.87607207 -87.08051107 84.16545424 -84.08984375 84.23046875 C-84.07566406 83.54984375 -84.06148437 82.86921875 -84.046875 82.16796875 C-83.28617104 66.70717467 -77.6234213 53.03083507 -69.08984375 40.23046875 C-68.90421875 39.19921875 -68.71859375 38.16796875 -68.52734375 37.10546875 C-67.05651276 31.58691088 -62.48203751 27.62129758 -58.08984375 24.23046875 C-56.10329749 23.52472205 -54.10243307 22.85810614 -52.08984375 22.23046875 C-50.30556368 21.18260013 -48.55479747 20.07581924 -46.83984375 18.91796875 C-34.29714321 10.74311921 -22.92102667 7.02371277 -8.08984375 5.23046875 C-7.94546875 4.59109375 -7.80109375 3.95171875 -7.65234375 3.29296875 C-6.50260822 -0.92272819 -3.96427455 0.0791416 0 0 Z " fill="#FA3847" transform="translate(92.08984375,-0.23046875)"/>
<path d="M0 0 C1.91015625 0.23046875 1.91015625 0.23046875 3.91015625 2.23046875 C3.91015625 3.22046875 3.91015625 4.21046875 3.91015625 5.23046875 C4.73515625 5.30523438 5.56015625 5.38 6.41015625 5.45703125 C19.56817908 6.95493117 31.21822659 11.21531095 42.578125 18.03125 C45.04437893 19.29949113 47.20241673 19.71196544 49.91015625 20.23046875 C54.32504984 23.17373114 55.27451961 27.32355883 56.91015625 32.23046875 C57.57015625 32.23046875 58.23015625 32.23046875 58.91015625 32.23046875 C71.60362514 47.2909099 78.91270794 64.52226599 79.91015625 84.23046875 C80.85890625 84.20984375 81.80765625 84.18921875 82.78515625 84.16796875 C85.91015625 84.23046875 85.91015625 84.23046875 87.91015625 85.23046875 C87.93703776 86.87621441 87.95649748 88.52208288 87.97265625 90.16796875 C87.98425781 91.08449219 87.99585938 92.00101562 88.0078125 92.9453125 C87.91015625 95.23046875 87.91015625 95.23046875 86.91015625 96.23046875 C84.57718192 96.27139812 82.243104 96.27288598 79.91015625 96.23046875 C79.82378906 97.22304687 79.73742187 98.215625 79.6484375 99.23828125 C77.84089948 117.56117606 71.08792452 132.02336125 59.87109375 146.51953125 C57.64641452 149.59508381 56.39365125 152.74748048 54.91015625 156.23046875 C53.0207423 158.80500803 51.0215752 161.2598004 48.984375 163.71875 C46.16689911 167.13049576 43.53560367 170.67020293 40.91015625 174.23046875 C35.12653052 172.34742781 35.12653052 172.34742781 32.59765625 170.98046875 C29.34444271 170.0725952 27.08740487 170.67628385 23.8671875 171.515625 C19.89011107 172.47705827 15.87858648 173.16043765 11.84765625 173.85546875 C11.07260742 173.99041748 10.29755859 174.12536621 9.49902344 174.2644043 C7.63637957 174.58822481 5.77331154 174.90960389 3.91015625 175.23046875 C3.76578125 175.86984375 3.62140625 176.50921875 3.47265625 177.16796875 C2.91015625 179.23046875 2.91015625 179.23046875 1.91015625 180.23046875 C-3.82595486 180.5036169 -3.82595486 180.5036169 -6.08984375 180.23046875 C-6.74984375 179.57046875 -7.40984375 178.91046875 -8.08984375 178.23046875 C-8.08984375 177.24046875 -8.08984375 176.25046875 -8.08984375 175.23046875 C-8.99605469 175.12089844 -9.90226562 175.01132813 -10.8359375 174.8984375 C-17.25152319 174.06339301 -23.17802753 173.0810078 -29.24609375 170.828125 C-31.57543375 170.07306352 -33.66123132 169.99544174 -36.08984375 170.23046875 C-35.75984375 169.57046875 -35.42984375 168.91046875 -35.08984375 168.23046875 C-34.42984375 168.23046875 -33.76984375 168.23046875 -33.08984375 168.23046875 C-32.90421875 167.08578125 -32.90421875 167.08578125 -32.71484375 165.91796875 C-30.47456052 162.21288495 -28.1334422 161.92246704 -24.0859375 160.80859375 C-2.28245014 156.60140193 20.09681004 158.99357321 39.91015625 169.23046875 C40.15507812 168.68648437 40.4 168.1425 40.65234375 167.58203125 C42.7512347 163.65801774 45.55782677 160.23907693 48.23046875 156.69140625 C50.09807077 154.45173946 50.09807077 154.45173946 49.91015625 152.23046875 C43.97015625 149.75546875 43.97015625 149.75546875 37.91015625 147.23046875 C38.57015625 146.90046875 39.23015625 146.57046875 39.91015625 146.23046875 C39.91015625 145.57046875 39.91015625 144.91046875 39.91015625 144.23046875 C40.96074219 144.02035156 42.01132813 143.81023437 43.09375 143.59375 C47.3050194 142.37857365 49.48070481 139.90751512 51.97265625 136.41796875 C52.39675781 135.84626953 52.82085937 135.27457031 53.2578125 134.68554688 C57.38472811 128.92925452 60.26856733 122.79874391 62.91015625 116.23046875 C63.25046875 115.44671875 63.59078125 114.66296875 63.94140625 113.85546875 C70.67843822 95.60028534 68.13915875 75.09502271 60.3359375 57.7265625 C56.71648618 50.44547511 52.34687884 43.34566954 45.91015625 38.23046875 C42.1994212 37.72850581 42.1994212 37.72850581 38.91015625 38.23046875 C36.53515625 36.60546875 36.53515625 36.60546875 34.91015625 34.23046875 C34.85472656 33.26882812 34.79929687 32.3071875 34.7421875 31.31640625 C34.19289 27.94077224 34.19289 27.94077224 30.8828125 26.18359375 C29.59148369 25.588971 28.28696766 25.02240215 26.97265625 24.48046875 C26.29404541 24.18390381 25.61543457 23.88733887 24.91625977 23.58178711 C17.82915979 20.58691854 10.67297043 18.6333292 2.91015625 19.23046875 C2.41515625 19.72546875 2.41515625 19.72546875 1.91015625 20.23046875 C0.09765625 20.36328125 0.09765625 20.36328125 -2.08984375 20.35546875 C-2.81171875 20.35804687 -3.53359375 20.360625 -4.27734375 20.36328125 C-6.08984375 20.23046875 -6.08984375 20.23046875 -7.08984375 19.23046875 C-20.43431636 18.04429341 -33.60575717 24.52397898 -43.984375 32.4375 C-46.46465372 34.61298257 -48.79036365 36.8656393 -51.08984375 39.23046875 C-51.78464844 39.90464844 -52.47945312 40.57882813 -53.1953125 41.2734375 C-66.70475364 55.2009658 -71.72654869 73.14142333 -71.63769531 92.10717773 C-71.28888267 104.04275888 -68.54171902 114.93075689 -62.94140625 125.46875 C-61.87673852 127.67134242 -61.39243648 129.80972691 -61.08984375 132.23046875 C-62.40984375 132.23046875 -63.72984375 132.23046875 -65.08984375 132.23046875 C-65.33734375 132.86984375 -65.58484375 133.50921875 -65.83984375 134.16796875 C-67.08984375 136.23046875 -67.08984375 136.23046875 -69.16796875 136.859375 C-70.11929688 137.04306641 -70.11929688 137.04306641 -71.08984375 137.23046875 C-78.15632379 123.86933295 -83.53591214 111.60207085 -84.08984375 96.23046875 C-85.03859375 96.25109375 -85.98734375 96.27171875 -86.96484375 96.29296875 C-90.08984375 96.23046875 -90.08984375 96.23046875 -92.08984375 95.23046875 C-92.08984375 91.93046875 -92.08984375 88.63046875 -92.08984375 85.23046875 C-89.3810504 83.87607207 -87.08051107 84.16545424 -84.08984375 84.23046875 C-84.07566406 83.54984375 -84.06148437 82.86921875 -84.046875 82.16796875 C-83.28617104 66.70717467 -77.6234213 53.03083507 -69.08984375 40.23046875 C-68.90421875 39.19921875 -68.71859375 38.16796875 -68.52734375 37.10546875 C-67.05651276 31.58691088 -62.48203751 27.62129758 -58.08984375 24.23046875 C-56.10329749 23.52472205 -54.10243307 22.85810614 -52.08984375 22.23046875 C-50.30556368 21.18260013 -48.55479747 20.07581924 -46.83984375 18.91796875 C-34.29714321 10.74311921 -22.92102667 7.02371277 -8.08984375 5.23046875 C-7.94546875 4.59109375 -7.80109375 3.95171875 -7.65234375 3.29296875 C-6.50260822 -0.92272819 -3.96427455 0.0791416 0 0 Z " fill="#F4D373" transform="translate(92.08984375,-0.23046875)"/>
<path d="M0 0 C2 2 2 2 2.3125 5.4375 C1.9773321 9.25841401 1.71566987 9.65692863 -1 12 C2.59696133 24.49423525 2.59696133 24.49423525 7.12109375 36.66796875 C8 39 8 39 8 42 C8.66 42 9.32 42 10 42 C10.20367187 41.46632812 10.40734375 40.93265625 10.6171875 40.3828125 C12.22344984 37.61495932 14.16660352 35.75526409 16.44360352 33.53271484 C21.76958622 28.51706523 21.76958622 28.51706523 24.68359375 22.03125 C24.62470952 19.41270126 24.62470952 19.41270126 24.12890625 17.0234375 C24 15 24 15 25.2734375 13.21875 C27 12 27 12 30.0625 12.125 C33 13 33 13 35 16 C34.78505922 18.86587712 34.63441738 20.4423977 32.43530273 22.37524414 C30.79031426 23.90103586 30.79031426 23.90103586 30.87524414 26.09155273 C30.98989014 26.88505127 31.10453613 27.6785498 31.22265625 28.49609375 C31.34141113 29.38409668 31.46016602 30.27209961 31.58251953 31.18701172 C31.72028809 32.11529785 31.85805664 33.04358398 32 34 C32.2292691 35.82404276 32.45712858 37.64826324 32.68359375 39.47265625 C32.93302248 41.3361892 33.18433576 43.19947085 33.4375 45.0625 C33.55931641 45.99126953 33.68113281 46.92003906 33.80664062 47.87695312 C34.39856347 52.24736793 35.07688984 56.54142334 36.0703125 60.83984375 C38.781594 72.57397852 35.97659075 82.92579727 32 94 C31.34 94.99 30.68 95.98 30 97 C25.46274387 96.47647045 21.00575279 95.81785222 16.515625 94.98046875 C9.98285364 93.88868506 3.61382791 93.6567134 -3 93.6875 C-4.16249268 93.68878906 -5.32498535 93.69007813 -6.52270508 93.69140625 C-16.8748629 93.80501797 -26.8466444 95.05500144 -37 97 C-39.96296105 92.87924324 -41.8215727 89.30647519 -43.25 84.375 C-43.58515625 83.26898438 -43.9203125 82.16296875 -44.265625 81.0234375 C-46.76757942 69.55268795 -44.03838777 57.89105661 -42 46.5625 C-41.56851239 44.12729781 -41.1399897 41.69164192 -40.71606445 39.25511169 C-40.45383467 37.75170258 -40.18700103 36.24908664 -39.91479492 34.74745178 C-38.95815381 29.40091453 -38.95815381 29.40091453 -39 24 C-39.680625 23.360625 -40.36125 22.72125 -41.0625 22.0625 C-43 20 -43 20 -42.9375 16.875 C-42 14 -42 14 -39 12 C-35.9375 12.1875 -35.9375 12.1875 -33 13 C-31 16 -31 16 -31.26953125 18.015625 C-31.44871094 18.75296875 -31.62789062 19.4903125 -31.8125 20.25 C-32.20550976 23.1120358 -32.37999388 24.42821111 -30.76171875 26.86328125 C-28.90261058 28.65643436 -26.96040067 30.31859373 -25 32 C-23.66148429 33.41330753 -22.34803129 34.85083252 -21.0625 36.3125 C-20.47597656 36.96863281 -19.88945313 37.62476563 -19.28515625 38.30078125 C-18 40 -18 40 -18 42 C-17.34 42 -16.68 42 -16 42 C-15.79375 40.824375 -15.5875 39.64875 -15.375 38.4375 C-14.23314586 33.18663791 -12.22942427 28.32763348 -10.12060547 23.40600586 C-8.52628466 19.61762443 -7.3535515 16.1085123 -7 12 C-7.474375 11.525625 -7.94875 11.05125 -8.4375 10.5625 C-10 9 -10 9 -10.375 5.5 C-10 2 -10 2 -8.9375 0 C-5.80557344 -1.61647822 -3.32814714 -0.78665296 0 0 Z " fill="#FEC844" transform="translate(94,43)"/>
<path d="M0 0 C0.495 0.495 0.495 0.495 1 1 C2.87321948 1.16053815 2.87321948 1.16053815 5 1.125 C5.721875 1.12757812 6.44375 1.13015625 7.1875 1.1328125 C9.02089415 1.19695276 9.02089415 1.19695276 10 0 C21.66910014 -0.28166793 32.2357877 3.86898297 42 10 C42 12.31 42 14.62 42 17 C40.93523437 16.45730469 39.87046875 15.91460937 38.7734375 15.35546875 C22.33808207 7.1701816 5.28244867 2.62813983 -12.96875 7.90234375 C-31.87819639 14.74970771 -45.09451589 26.53970863 -53.6796875 44.7890625 C-60.54928066 61.49558788 -61.50832771 78.87758533 -54.8984375 95.82421875 C-50.6596393 105.62814877 -45.23670465 117.01153649 -36 123 C-31.50735151 122.78400728 -27.31086686 121.23578183 -23 120 C0.60985689 115.04559998 25.35394456 117.08088866 48 125 C48 126.32 48 127.64 48 129 C52.95 131.475 52.95 131.475 58 134 C56.07775454 137.84449092 53.83715144 141.24912842 51.375 144.75 C50.95476562 145.35199219 50.53453125 145.95398438 50.1015625 146.57421875 C49.07006863 148.05113043 48.03535421 149.52579194 47 151 C43.90650986 149.99216611 40.84845139 148.94212587 37.80859375 147.78125 C19.49796255 140.8219371 -5.37872191 138.06822852 -24 146 C-25.10728873 147.91243204 -25.10728873 147.91243204 -26 150 C-28.2421875 151.7734375 -28.2421875 151.7734375 -30.875 153.375 C-31.73867188 153.91898438 -32.60234375 154.46296875 -33.4921875 155.0234375 C-36 156 -36 156 -37.98852539 155.26953125 C-40.13322908 153.91591319 -41.23034924 152.72123525 -42.69140625 150.6640625 C-43.16126953 150.01179687 -43.63113281 149.35953125 -44.11523438 148.6875 C-44.59283203 148.006875 -45.07042969 147.32625 -45.5625 146.625 C-46.52212057 145.28384354 -47.48175558 143.94269742 -48.44140625 142.6015625 C-49.10716675 141.65700195 -49.10716675 141.65700195 -49.78637695 140.69335938 C-50.76185129 139.33228715 -51.78748362 138.00723219 -52.828125 136.6953125 C-54.40709232 134.41107311 -54.22584604 132.71015242 -54 130 C-54.886875 130.680625 -55.77375 131.36125 -56.6875 132.0625 C-60 134 -60 134 -62.6875 133.9375 C-65.25268314 132.89756089 -66.47885413 132.32174895 -68 130 C-68.3515625 127.15234375 -68.3515625 127.15234375 -68 124 C-66.06640625 121.734375 -66.06640625 121.734375 -63.5625 119.75 C-60.28907728 117.27381654 -60.28907728 117.27381654 -58 114 C-56.515 113.505 -56.515 113.505 -55 113 C-55.23074219 112.46375 -55.46148437 111.9275 -55.69921875 111.375 C-64.23956254 90.85116986 -69.91095108 68.13611255 -61.54296875 46.54296875 C-57.03122966 36.18310203 -51.93343164 28.06208188 -44 20 C-43.18982422 19.06414063 -43.18982422 19.06414063 -42.36328125 18.109375 C-32.5023102 7.0809842 -14.82061364 -0.92628835 0 0 Z " fill="#F1C042" transform="translate(85,18)"/>
<path d="M0 0 C0.99 0.66 1.98 1.32 3 2 C5.27912938 2.45394552 5.27912938 2.45394552 7.6875 2.625 C8.49574219 2.69976562 9.30398437 2.77453125 10.13671875 2.8515625 C10.75160156 2.90054688 11.36648437 2.94953125 12 3 C10.3032643 22.49979837 3.96253079 37.77869775 -8.0390625 53.2890625 C-10.26374173 56.36461506 -11.516505 59.51701173 -13 63 C-14.88941395 65.57453928 -16.88858105 68.02933165 -18.92578125 70.48828125 C-21.74325714 73.90002701 -24.37455258 77.43973418 -27 81 C-32.78362573 79.11695906 -32.78362573 79.11695906 -35.3125 77.75 C-38.56571354 76.84212645 -40.82275138 77.4458151 -44.04296875 78.28515625 C-48.02004518 79.24658952 -52.03156977 79.9299689 -56.0625 80.625 C-56.83754883 80.75994873 -57.61259766 80.89489746 -58.41113281 81.03393555 C-60.27377668 81.35775606 -62.13684471 81.67913514 -64 82 C-64.144375 82.639375 -64.28875 83.27875 -64.4375 83.9375 C-65 86 -65 86 -66 87 C-71.73611111 87.27314815 -71.73611111 87.27314815 -74 87 C-74.66 86.34 -75.32 85.68 -76 85 C-76 84.01 -76 83.02 -76 82 C-76.90621094 81.89042969 -77.81242187 81.78085938 -78.74609375 81.66796875 C-85.16167944 80.83292426 -91.08818378 79.85053905 -97.15625 77.59765625 C-99.48559 76.84259477 -101.57138757 76.76497299 -104 77 C-103.505 76.01 -103.505 76.01 -103 75 C-102.34 75 -101.68 75 -101 75 C-100.87625 74.236875 -100.7525 73.47375 -100.625 72.6875 C-98.38471677 68.9824162 -96.04359845 68.69199829 -91.99609375 67.578125 C-70.19260639 63.37093318 -47.81334621 65.76310446 -28 76 C-27.75507813 75.45601563 -27.51015625 74.91203125 -27.2578125 74.3515625 C-25.15892155 70.42754899 -22.35232948 67.00860818 -19.6796875 63.4609375 C-17.81208548 61.22127071 -17.81208548 61.22127071 -18 59 C-21.96 57.35 -25.92 55.7 -30 54 C-29.34 53.67 -28.68 53.34 -28 53 C-28 52.34 -28 51.68 -28 51 C-26.94941406 50.78988281 -25.89882812 50.57976562 -24.81640625 50.36328125 C-20.60513685 49.1481049 -18.42945144 46.67704637 -15.9375 43.1875 C-15.51339844 42.61580078 -15.08929688 42.04410156 -14.65234375 41.45507812 C-10.52542814 35.69878577 -7.64158892 29.56827516 -5 23 C-4.64035156 22.12730469 -4.28070313 21.25460938 -3.91015625 20.35546875 C-1.34417919 13.71476417 -0.54869579 7.04640915 0 0 Z " fill="#F1A401" transform="translate(160,93)"/>
<path d="M0 0 C0.33 0 0.66 0 1 0 C1 2.64 1 5.28 1 8 C10.57 8 20.14 8 30 8 C30.33 6.68 30.66 5.36 31 4 C31.33 4.66 31.66 5.32 32 6 C32.50789063 5.68804687 33.01578125 5.37609375 33.5390625 5.0546875 C39.19622224 1.85532 39.19622224 1.85532 43.125 2.5625 C45.02051156 3.51025578 46.89178682 4.50835195 48.73291016 5.55786133 C52.43210807 7.19073848 55.11869443 7.42561313 59.1484375 7.51171875 C59.80582916 7.52966995 60.46322083 7.54762115 61.14053345 7.56611633 C63.21862572 7.61984437 65.29649347 7.65399125 67.375 7.6875 C68.79299976 7.72070653 70.21097001 7.75519924 71.62890625 7.79101562 C75.0857218 7.87554651 78.54261638 7.94253568 82 8 C81.45308123 13.15907909 80.62476579 17.84272617 79.0625 22.8125 C78.55396484 24.46185547 78.55396484 24.46185547 78.03515625 26.14453125 C77 29 77 29 75 32 C70.46274387 31.47647045 66.00575279 30.81785222 61.515625 29.98046875 C54.98285364 28.88868506 48.61382791 28.6567134 42 28.6875 C40.83750732 28.68878906 39.67501465 28.69007813 38.47729492 28.69140625 C28.1251371 28.80501797 18.1533556 30.05500144 8 32 C1.11841164 22.42938762 -0.76779357 11.64486914 0 0 Z " fill="#FEBC54" transform="translate(49,108)"/>
<path d="M0 0 C0.495 0.495 0.495 0.495 1 1 C2.87321948 1.16053815 2.87321948 1.16053815 5 1.125 C5.721875 1.12757812 6.44375 1.13015625 7.1875 1.1328125 C9.02089415 1.19695276 9.02089415 1.19695276 10 0 C21.66910014 -0.28166793 32.2357877 3.86898297 42 10 C42 12.31 42 14.62 42 17 C40.93523437 16.45730469 39.87046875 15.91460937 38.7734375 15.35546875 C22.33808207 7.1701816 5.28244867 2.62813983 -12.96875 7.90234375 C-31.87819639 14.74970771 -45.09451589 26.53970863 -53.6796875 44.7890625 C-60.54928066 61.49558788 -61.50832771 78.87758533 -54.8984375 95.82421875 C-50.6178481 105.72480779 -45.71452687 113.83476065 -37.7578125 121.1875 C-36 123 -36 123 -36 125 C-38.5 126 -38.5 126 -42 126 C-52.14544035 119.03141471 -57.99781223 106.21492177 -62 95 C-62.32097656 94.14792969 -62.64195313 93.29585938 -62.97265625 92.41796875 C-68.94215867 73.45438666 -65.3906939 53.46681223 -56.75 36.125 C-53.24738083 29.97257329 -48.94591397 25.02611798 -44 20 C-43.18982422 19.06414063 -43.18982422 19.06414063 -42.36328125 18.109375 C-32.5023102 7.0809842 -14.82061364 -0.92628835 0 0 Z " fill="#280F0D" transform="translate(85,18)"/>
<path d="M0 0 C4 4.75 4 4.75 4 7 C4.66 7 5.32 7 6 7 C18.69346889 22.06044115 26.00255169 39.29179724 27 59 C27.94875 58.979375 28.8975 58.95875 29.875 58.9375 C33 59 33 59 35 60 C35.02688151 61.64574566 35.04634123 63.29161413 35.0625 64.9375 C35.07410156 65.85402344 35.08570313 66.77054687 35.09765625 67.71484375 C35 70 35 70 34 71 C31.36070903 71.15351581 28.76560041 71.23163061 26.125 71.25 C25.39152344 71.270625 24.65804687 71.29125 23.90234375 71.3125 C20.99109659 71.33371127 18.61494847 71.33047427 16.015625 69.93359375 C14.43795575 66.92995422 14.65826963 64.18271345 14.625 60.8125 C13.90806708 41.05175454 4.81085539 24.81085539 -9 11 C-8.34 11 -7.68 11 -7 11 C-6.7525 10.4225 -6.505 9.845 -6.25 9.25 C-4.83400344 6.70120619 -3.05276785 5.05276785 -1 3 C-0.67 2.01 -0.34 1.02 0 0 Z " fill="#F1B42B" transform="translate(145,25)"/>
<path d="M0 0 C0.99 0.99 1.98 1.98 3 3 C-0.63 3 -4.26 3 -8 3 C-8 3.99 -8 4.98 -8 6 C-6.68 6 -5.36 6 -4 6 C-4 9.3 -4 12.6 -4 16 C-3.01 16 -2.02 16 -1 16 C-1 13.03 -1 10.06 -1 7 C0.65 7 2.3 7 4 7 C4.309375 8.134375 4.61875 9.26875 4.9375 10.4375 C5.62924531 13.78775099 5.62924531 13.78775099 7 15 C8.99958364 15.04080783 11.00045254 15.04254356 13 15 C13 15.99 13 16.98 13 18 C12.41210693 18.03440186 11.82421387 18.06880371 11.21850586 18.10424805 C-2.31787305 18.95563414 -14.23146298 20.51136443 -26.65234375 26.21875 C-29.37173401 27.12370516 -30.34379247 26.95636334 -33 26 C-34.92689197 23.90893338 -36.61777288 21.88788743 -38.3125 19.625 C-39.01342773 18.73941406 -39.01342773 18.73941406 -39.72851562 17.8359375 C-41.05078125 16.1015625 -41.05078125 16.1015625 -43 13 C-42 10 -42 10 -39.91796875 8.75390625 C-27.24180592 3.22281947 -14.11680476 -1.91568918 0 0 Z " fill="#2D1210" transform="translate(80,141)"/>
<path d="M0 0 C2 3 2 3 1.79296875 5.62890625 C1.49326172 7.08103516 1.49326172 7.08103516 1.1875 8.5625 C0.99542969 9.53316406 0.80335937 10.50382812 0.60546875 11.50390625 C0 14 0 14 -1 16 C1.97851562 15.90234375 1.97851562 15.90234375 4.95703125 15.8046875 C7 16 7 16 10 18 C10.3359375 20.84375 10.3359375 20.84375 10.375 24.5 C10.59802967 30.73026872 11.63086399 36.43720234 13.3125 42.4375 C13.51343262 43.1696875 13.71436523 43.901875 13.92138672 44.65625 C15.22912776 49.12833885 16.94310498 53.1524283 19.14624023 57.25805664 C20.22125674 59.45143461 20.6979683 61.5837464 21 64 C19.68 64 18.36 64 17 64 C16.7525 64.639375 16.505 65.27875 16.25 65.9375 C15 68 15 68 12.921875 68.62890625 C12.28765625 68.75136719 11.6534375 68.87382812 11 69 C3.93351996 55.6388642 -1.44606839 43.3716021 -2 28 C-2.94875 28.020625 -3.8975 28.04125 -4.875 28.0625 C-8 28 -8 28 -10 27 C-10 23.7 -10 20.4 -10 17 C-7.29120665 15.64560332 -4.99066732 15.93498549 -2 16 C-1.93941406 15.18015625 -1.87882813 14.3603125 -1.81640625 13.515625 C-1.73261719 12.43796875 -1.64882812 11.3603125 -1.5625 10.25 C-1.48128906 9.18265625 -1.40007813 8.1153125 -1.31640625 7.015625 C-1.05909227 4.56320038 -0.68187782 2.36078709 0 0 Z " fill="#F2CB5F" transform="translate(10,68)"/>
<path d="M0 0 C7.72876288 2.12423402 16.15540908 4.59449147 22.8515625 9.05859375 C21.10089454 12.94469186 18.66832244 16.33671633 16.2265625 19.80859375 C15.80632812 20.41058594 15.38609375 21.01257813 14.953125 21.6328125 C13.92163113 23.10972418 12.88691671 24.58438569 11.8515625 26.05859375 C8.75807236 25.05075986 5.70001389 24.00071962 2.66015625 22.83984375 C-5.2383515 19.83786166 -12.75246786 17.99302891 -21.1484375 17.05859375 C-20.8184375 14.41859375 -20.4884375 11.77859375 -20.1484375 9.05859375 C-18.1684375 8.39859375 -16.1884375 7.73859375 -14.1484375 7.05859375 C-14.4784375 5.40859375 -14.8084375 3.75859375 -15.1484375 2.05859375 C-17.7884375 1.72859375 -20.4284375 1.39859375 -23.1484375 1.05859375 C-17.35201209 -4.98985016 -7.17601919 -1.633756 0 0 Z " fill="#2E1210" transform="translate(120.1484375,142.94140625)"/>
<path d="M0 0 C9.36520661 5.73094733 13.85990563 16.6353205 18.09375 26.28125 C18.55265625 27.27382812 19.0115625 28.26640625 19.484375 29.2890625 C25.14663695 43.92321838 24.09055315 63.28783966 18.6328125 77.81640625 C14.20895072 87.77570929 8.87820577 99.3530334 0.09375 106.28125 C-3.71875 106.1015625 -3.71875 106.1015625 -6.90625 105.28125 C-5.34423 101.532402 -2.98331629 99.15971749 -0.15625 96.28125 C4.97472492 90.81817315 8.25644687 85.19717638 11.09375 78.28125 C11.50625 77.37890625 11.91875 76.4765625 12.34375 75.546875 C17.76357085 61.62094642 17.36340614 42.25955933 12.4140625 28.2421875 C8.46706875 19.39064529 3.60666766 12.25240782 -3.0859375 5.2421875 C-4.90625 3.28125 -4.90625 3.28125 -5.90625 1.28125 C-2.46652555 -0.93000144 -2.46652555 -0.93000144 0 0 Z " fill="#2C0F0C" transform="translate(137.90625,37.71875)"/>
<path d="M0 0 C0.84884766 -0.01224609 1.69769531 -0.02449219 2.57226562 -0.03710938 C3.7875293 -0.04000977 3.7875293 -0.04000977 5.02734375 -0.04296875 C5.7555835 -0.04707764 6.48382324 -0.05118652 7.23413086 -0.05541992 C9.0625 0.1875 9.0625 0.1875 11.0625 2.1875 C9.0825 2.1875 7.1025 2.1875 5.0625 2.1875 C5.5575 3.1775 5.5575 3.1775 6.0625 4.1875 C6.18643466 6.7007797 6.24765112 9.17420114 6.25 11.6875 C6.26224609 12.37714844 6.27449219 13.06679687 6.28710938 13.77734375 C6.29238695 15.58227494 6.18434458 17.38667842 6.0625 19.1875 C4.0625 21.1875 4.0625 21.1875 2.1875 21.453125 C1.48625 21.44796875 0.785 21.4428125 0.0625 21.4375 C-0.989375 21.44523437 -0.989375 21.44523437 -2.0625 21.453125 C-3.9375 21.1875 -3.9375 21.1875 -5.9375 19.1875 C-5.9375 18.1975 -5.9375 17.2075 -5.9375 16.1875 C-7.29681641 16.02314453 -7.29681641 16.02314453 -8.68359375 15.85546875 C-15.09917944 15.02042426 -21.02568378 14.03803905 -27.09375 11.78515625 C-29.42309 11.03009477 -31.50888757 10.95247299 -33.9375 11.1875 C-33.6075 10.5275 -33.2775 9.8675 -32.9375 9.1875 C-32.2775 9.1875 -31.6175 9.1875 -30.9375 9.1875 C-30.81375 8.424375 -30.69 7.66125 -30.5625 6.875 C-28.32221677 3.1699162 -25.98109845 2.87949829 -21.93359375 1.765625 C-14.64689793 0.35958722 -7.40812446 0.00581029 0 0 Z " fill="#F1AF20" transform="translate(89.9375,158.8125)"/>
<path d="M0 0 C0.66 0 1.32 0 2 0 C2.67119549 1.4562545 3.33681807 2.91507867 4 4.375 C4.556875 5.59316406 4.556875 5.59316406 5.125 6.8359375 C6 9 6 9 6 11 C9.96 11.33 13.92 11.66 18 12 C18 12.66 18 13.32 18 14 C16.82428729 14.78869506 15.63422026 15.55606038 14.4375 16.3125 C12.39249072 17.80182004 12.39249072 17.80182004 11 20 C10.67215995 24.44699167 11.22675054 28.62041903 12 33 C9.26718627 32.40769488 7.59853258 31.76435608 5.125 30.3125 C2.06888082 28.67369485 2.06888082 28.67369485 -1.0625 29.6875 C-2.031875 30.120625 -3.00125 30.55375 -4 31 C-5.66482195 31.67126009 -7.331207 32.33867394 -9 33 C-8.98839844 32.16855469 -8.97679688 31.33710937 -8.96484375 30.48046875 C-8.95582031 29.39378906 -8.94679688 28.30710937 -8.9375 27.1875 C-8.92589844 26.10855469 -8.91429688 25.02960938 -8.90234375 23.91796875 C-8.86375234 20.93487831 -8.86375234 20.93487831 -10 18 C-10.66 18 -11.32 18 -12 18 C-14.125 16.125 -14.125 16.125 -16 14 C-16 13.34 -16 12.68 -16 12 C-10.06 11.505 -10.06 11.505 -4 11 C-3.525625 9.55625 -3.05125 8.1125 -2.5625 6.625 C-1.80602983 4.32269949 -1.08391186 2.16782371 0 0 Z " fill="#FFF3CB" transform="translate(89,82)"/>
<path d="M0 0 C4.14372615 -0.29757459 6.561883 0.52538257 10.1875 2.5 C13.4239373 4.40512626 13.4239373 4.40512626 17 5 C16.44518757 8.97045861 15.31404996 11.39267163 12.9453125 14.609375 C12.33042969 15.44597656 11.71554688 16.28257812 11.08203125 17.14453125 C10.43621094 18.00433594 9.79039062 18.86414063 9.125 19.75 C8.48691406 20.62527344 7.84882813 21.50054687 7.19140625 22.40234375 C2.38773287 28.87075571 2.38773287 28.87075571 -1 30 C-2.9453125 29.15234375 -2.9453125 29.15234375 -5.125 27.9375 C-9.44683978 25.93536975 -11.69228124 25.87307418 -16.18359375 27.21484375 C-20.09635299 28.30564071 -24.06087772 28.94500462 -28.0625 29.625 C-29.57425746 29.88779824 -31.08597915 30.15080238 -32.59765625 30.4140625 C-34.28181641 30.70410156 -34.28181641 30.70410156 -36 31 C-36.33 26.38 -36.66 21.76 -37 17 C-23.50275398 15.071822 -12.03605838 18.72031737 0 25 C0.24492187 24.45601562 0.48984375 23.91203125 0.7421875 23.3515625 C2.84107845 19.42754899 5.64767052 16.00860818 8.3203125 12.4609375 C10.18791452 10.22127071 10.18791452 10.22127071 10 8 C6.04 6.35 2.08 4.7 -2 3 C-1.34 2.67 -0.68 2.34 0 2 C0 1.34 0 0.68 0 0 Z " fill="#EEA302" transform="translate(132,144)"/>
<path d="M0 0 C10.23 0 20.46 0 31 0 C33.62962963 6.57407407 33.62962963 6.57407407 34 10 C32 12 32 12 29.375 12.125 C28.59125 12.08375 27.8075 12.0425 27 12 C27.020625 12.969375 27.04125 13.93875 27.0625 14.9375 C27 18 27 18 26 19 C24.00041636 19.04080783 21.99954746 19.04254356 20 19 C19.67 18.34 19.34 17.68 19 17 C18.278125 17.0825 17.55625 17.165 16.8125 17.25 C13.05344589 16.91586186 11.56974999 15.71659284 9 13 C8.6875 10.25 8.6875 10.25 9 8 C8.01 8 7.02 8 6 8 C6 10.97 6 13.94 6 17 C5.01 17 4.02 17 3 17 C3 13.7 3 10.4 3 7 C1.68 7 0.36 7 -1 7 C-1 6.01 -1 5.02 -1 4 C2.465 3.505 2.465 3.505 6 3 C6 2.67 6 2.34 6 2 C3.03 1.505 3.03 1.505 0 1 C0 0.67 0 0.34 0 0 Z " fill="#341813" transform="translate(73,140)"/>
<path d="M0 0 C2 3 2 3 1.79296875 5.62890625 C1.49326172 7.08103516 1.49326172 7.08103516 1.1875 8.5625 C0.99542969 9.53316406 0.80335937 10.50382812 0.60546875 11.50390625 C0 14 0 14 -1 16 C1.97851562 15.90234375 1.97851562 15.90234375 4.95703125 15.8046875 C7 16 7 16 10 18 C10.36750064 21.36875585 10.57975504 23.87672462 9 26.9375 C5.73357754 28.67278693 2.65648548 28.17982715 -1 28 C-0.67 28.99 -0.34 29.98 0 31 C0.03954234 33.33299825 0.04401732 35.66708189 0 38 C-0.33 38 -0.66 38 -1 38 C-1.33 34.7 -1.66 31.4 -2 28 C-2.94875 28.020625 -3.8975 28.04125 -4.875 28.0625 C-8 28 -8 28 -10 27 C-10 23.7 -10 20.4 -10 17 C-7.29120665 15.64560332 -4.99066732 15.93498549 -2 16 C-1.93941406 15.18015625 -1.87882813 14.3603125 -1.81640625 13.515625 C-1.73261719 12.43796875 -1.64882812 11.3603125 -1.5625 10.25 C-1.48128906 9.18265625 -1.40007813 8.1153125 -1.31640625 7.015625 C-1.05909227 4.56320038 -0.68187782 2.36078709 0 0 Z " fill="#F4B741" transform="translate(10,68)"/>
<path d="M0 0 C0.66 0.33 1.32 0.66 2 1 C1.34 2.32 0.68 3.64 0 5 C0.99 6.485 0.99 6.485 2 8 C1.70177653 11.59322907 -0.06113247 13.52631119 -2.4375 16.125 C-3.05496094 16.80820312 -3.67242187 17.49140625 -4.30859375 18.1953125 C-5.51696487 19.48461379 -6.75050839 20.75050839 -8 22 C-11.37991574 21.6442194 -14.04288438 20.64284201 -17 19 C-17.41784792 15.13773002 -17.35567645 13.48641917 -15.0234375 10.296875 C-13.71246094 9.03617188 -13.71246094 9.03617188 -12.375 7.75 C-11.51648438 6.89921875 -10.65796875 6.0484375 -9.7734375 5.171875 C-6.8799703 2.90600491 -4.50915884 1.98537985 -1 1 C-0.67 0.67 -0.34 0.34 0 0 Z " fill="#FBCF75" transform="translate(41,21)"/>
<path d="M0 0 C0.70125 0.00515625 1.4025 0.0103125 2.125 0.015625 C2.82625 0.01046875 3.5275 0.0053125 4.25 0 C6.125 0.265625 6.125 0.265625 8.125 2.265625 C8.32393799 4.79038216 8.40347435 7.18077249 8.375 9.703125 C8.38273437 10.38439453 8.39046875 11.06566406 8.3984375 11.76757812 C8.38389434 15.47971942 8.23440418 17.10151872 6.125 20.265625 C4.25 20.6640625 4.25 20.6640625 2.125 20.640625 C1.42375 20.64835937 0.7225 20.65609375 0 20.6640625 C-1.875 20.265625 -1.875 20.265625 -3.875 17.265625 C-4.06958614 14.69880488 -4.154098 12.26617351 -4.125 9.703125 C-4.13273437 9.01798828 -4.14046875 8.33285156 -4.1484375 7.62695312 C-4.1207901 0.5837786 -4.1207901 0.5837786 0 0 Z " fill="#FCE6AC" transform="translate(87.875,-0.265625)"/>
<path d="M0 0 C1.36465267 0.00399021 2.7293066 0.01874032 4.09375 0.04296875 C4.78339844 0.04361328 5.47304687 0.04425781 6.18359375 0.04492188 C11.31263951 0.0899135 11.31263951 0.0899135 13.59375 1.23046875 C13.62063151 2.87621441 13.64009123 4.52208288 13.65625 6.16796875 C13.66785156 7.08449219 13.67945313 8.00101562 13.69140625 8.9453125 C13.59375 11.23046875 13.59375 11.23046875 12.59375 12.23046875 C9.93552343 12.35705097 7.31487576 12.41567089 4.65625 12.41796875 C3.91439453 12.43021484 3.17253906 12.44246094 2.40820312 12.45507812 C0.46861371 12.46035353 -1.4704871 12.35235777 -3.40625 12.23046875 C-5.40625 10.23046875 -5.40625 10.23046875 -5.671875 8.35546875 C-5.66671875 7.65421875 -5.6615625 6.95296875 -5.65625 6.23046875 C-5.66140625 5.52921875 -5.6665625 4.82796875 -5.671875 4.10546875 C-5.14607368 0.39393 -3.48985136 0.23612526 0 0 Z " fill="#FEE29E" transform="translate(166.40625,83.76953125)"/>
<path d="M0 0 C2.96175123 0.61277612 4.38058783 1.25372522 7 3 C7.625 5.625 7.625 5.625 7 9 C4.95551751 11.96024027 2.68715092 14.60466638 0 17 C-0.66 17 -1.32 17 -2 17 C-2 17.66 -2 18.32 -2 19 C-5.24915145 19.36101683 -6.6352257 19.24958242 -9.375 17.375 C-11 15 -11 15 -11.1875 12.1875 C-9.54852502 7.78814611 -6.77114229 4.78307007 -3 2 C-2.01 2 -1.02 2 0 2 C0 1.34 0 0.68 0 0 Z " fill="#FBECBD" transform="translate(138,19)"/>
<path d="M0 0 C14.69520784 -0.54708116 28.2943656 0.1374743 42 6 C41.67 6.99 41.34 7.98 41 9 C34.67388839 8.36738884 28.57093154 7.10043019 22.3671875 5.71875 C15.25033906 4.19960834 8.38565712 3.71022173 1.125 3.4375 C0.05507812 3.39431641 -1.01484375 3.35113281 -2.1171875 3.30664062 C-4.74467754 3.20107183 -7.37225422 3.09896209 -10 3 C-10 2.67 -10 2.34 -10 2 C-6.7 2 -3.4 2 0 2 C0 1.34 0 0.68 0 0 Z " fill="#F1A407" transform="translate(91,137)"/>
<path d="M0 0 C3.96 0 7.92 0 12 0 C12 0.33 12 0.66 12 1 C10.02 1 8.04 1 6 1 C6.33 1.66 6.66 2.32 7 3 C7.07033769 4.87379605 7.0843022 6.75001102 7.0625 8.625 C7.05347656 9.62789062 7.04445313 10.63078125 7.03515625 11.6640625 C7.02355469 12.43492187 7.01195313 13.20578125 7 14 C4.47946405 15.26026798 3.1457902 14.91874445 0.375 14.5625 C-0.44226563 14.46066406 -1.25953125 14.35882813 -2.1015625 14.25390625 C-2.72804688 14.17011719 -3.35453125 14.08632812 -4 14 C-4.69289369 10.27569643 -5.11144596 6.78916254 -5 3 C-3.35 3 -1.7 3 0 3 C0 2.01 0 1.02 0 0 Z " fill="#FEB52A" transform="translate(89,160)"/>
<path d="M0 0 C3.93677426 1.31225809 4.8271782 3.1961394 7.1875 6.5625 C7.90292969 7.57441406 8.61835937 8.58632812 9.35546875 9.62890625 C9.89816406 10.41136719 10.44085938 11.19382813 11 12 C15.18893544 11.34877894 19.0028574 10.42755093 23 9 C22.67197783 11.94576775 22.18268627 12.84892611 19.85546875 14.7734375 C18.97503906 15.30195313 18.09460938 15.83046875 17.1875 16.375 C16.31480469 16.91898438 15.44210938 17.46296875 14.54296875 18.0234375 C12 19 12 19 10.01586914 18.27832031 C7.82791022 16.89087295 6.69951234 15.62550543 5.203125 13.5234375 C4.71972656 12.853125 4.23632812 12.1828125 3.73828125 11.4921875 C3.24714844 10.79351562 2.75601563 10.09484375 2.25 9.375 C1.74339844 8.66859375 1.23679687 7.9621875 0.71484375 7.234375 C-0.53096207 5.494948 -1.7664963 3.74817248 -3 2 C-2.01 1.34 -1.02 0.68 0 0 Z " fill="#E2AA2C" transform="translate(37,155)"/>
<path d="M0 0 C2 2 2 2 2.3125 5.4375 C2 9 2 9 0.875 10.9375 C-1.88980433 12.50422245 -3.88188517 12.38976435 -7 12 C-8.875 10.9375 -8.875 10.9375 -10 9 C-10.36841966 5.56141649 -10.58367385 3.09868019 -8.9375 0 C-5.80557344 -1.61647822 -3.32814714 -0.78665296 0 0 Z " fill="#FFEABF" transform="translate(94,43)"/>
<path d="M0 0 C1.75 1.1875 1.75 1.1875 3 3 C3.5 6 3.5 6 3 9 C1.125 11.1875 1.125 11.1875 -2 12 C-5.55212949 10.69845637 -8.75555906 8.9340648 -12 7 C-11.23883449 5.84772177 -10.46567307 4.7033614 -9.6875 3.5625 C-9.25824219 2.92441406 -8.82898438 2.28632813 -8.38671875 1.62890625 C-5.85670753 -1.34296608 -3.41203906 -1.27951465 0 0 Z " fill="#FBC55C" transform="translate(149,138)"/>
<path d="M0 0 C0.556875 0.70125 1.11375 1.4025 1.6875 2.125 C4.09124732 5.11344261 6.53810432 8.05940238 9 11 C3.76470588 15.01778386 3.76470588 15.01778386 0.3125 14.9375 C-2.25268314 13.89756089 -3.47885413 13.32174895 -5 11 C-5.5 8.125 -5.5 8.125 -5 5 C-2.5 2.125 -2.5 2.125 0 0 Z " fill="#E29B0E" transform="translate(22,137)"/>
<path d="M0 0 C2 3 2 3 1.79296875 5.59375 C1.49326172 7.03234375 1.49326172 7.03234375 1.1875 8.5 C0.99542969 9.4590625 0.80335937 10.418125 0.60546875 11.40625 C0 14 0 14 -1 17 C-1.22179785 18.89212737 -1.40614015 20.78884472 -1.5625 22.6875 C-1.64628906 23.68136719 -1.73007813 24.67523438 -1.81640625 25.69921875 C-1.87699219 26.45847656 -1.93757812 27.21773437 -2 28 C-7.75 28.125 -7.75 28.125 -10 27 C-10 23.7 -10 20.4 -10 17 C-7.29120665 15.64560332 -4.99066732 15.93498549 -2 16 C-1.93941406 15.18015625 -1.87882813 14.3603125 -1.81640625 13.515625 C-1.73261719 12.43796875 -1.64882812 11.3603125 -1.5625 10.25 C-1.48128906 9.18265625 -1.40007813 8.1153125 -1.31640625 7.015625 C-1.05909227 4.56320038 -0.68187782 2.36078709 0 0 Z " fill="#E7A730" transform="translate(10,68)"/>
<path d="M0 0 C3.5 0.25 3.5 0.25 5.5 2.25 C6.05416667 8.34583333 6.05416667 8.34583333 4.3125 11.1875 C1.83950907 12.63718434 0.32115488 12.67317323 -2.5 12.25 C-4.3125 11.1875 -4.3125 11.1875 -5.5 9.25 C-5.8125 5.6875 -5.8125 5.6875 -5.5 2.25 C-3.5 0.25 -3.5 0.25 0 0 Z " fill="#E9CE8A" transform="translate(89.5,144.75)"/>
<path d="M0 0 C2.9375 0.8125 2.9375 0.8125 4.9375 3.8125 C4.59108161 7.27668389 3.90463413 8.86179881 1.9375 11.8125 C-1.4375 11.5 -1.4375 11.5 -5.0625 10.8125 C-7.0625 7.8125 -7.0625 7.8125 -6.875 4.75 C-5.72557438 0.5943843 -4.26983801 -0.26141865 0 0 Z " fill="#FFE5BA" transform="translate(58.0625,55.1875)"/>
<path d="M0 0 C2.5625 0.375 2.5625 0.375 4.375 2.0625 C5.80383577 4.84496966 6.10239962 6.28985933 5.5625 9.375 C3.5625 11.6875 3.5625 11.6875 1.5625 13.375 C-2.2327131 11.88402342 -4.04792731 9.61799151 -6.4375 6.375 C-3.73031768 0.57389503 -3.73031768 0.57389503 0 0 Z " fill="#FEB421" transform="translate(29.4375,132.625)"/>
<path d="M0 0 C4.14372615 -0.29757459 6.561883 0.52538257 10.1875 2.5 C13.4239373 4.40512626 13.4239373 4.40512626 17 5 C16.54300722 10.02692063 14.00758252 13.14896261 11 17 C10.67 16.34 10.34 15.68 10 15 C9.01 14.67 8.02 14.34 7 14 C7.495 13.38125 7.99 12.7625 8.5 12.125 C10.19222773 10.16119096 10.19222773 10.16119096 10 8 C6.04 6.35 2.08 4.7 -2 3 C-1.34 2.67 -0.68 2.34 0 2 C0 1.34 0 0.68 0 0 Z " fill="#E39803" transform="translate(132,144)"/>
<path d="M0 0 C2.9375 0.875 2.9375 0.875 4.9375 3.875 C4.72732001 6.67739987 4.24793413 8.40934881 2.6875 10.75 C0.9375 11.875 0.9375 11.875 -1.625 11.6875 C-4.0625 10.875 -4.0625 10.875 -6.0625 8.875 C-6.39552312 5.7445827 -6.53921956 3.69601702 -4.9375 0.9375 C-3.0625 -0.125 -3.0625 -0.125 0 0 Z " fill="#FFE9BD" transform="translate(124.0625,55.125)"/>
<path d="M0 0 C1.23814453 0.00902344 2.47628906 0.01804688 3.75195312 0.02734375 C6.77234511 0.05066724 9.79231399 0.08339523 12.8125 0.125 C12.8125 0.455 12.8125 0.785 12.8125 1.125 C8.5225 1.125 4.2325 1.125 -0.1875 1.125 C-0.1875 1.785 -0.1875 2.445 -0.1875 3.125 C-3.02025953 3.46396268 -5.85354661 3.79629694 -8.6875 4.125 C-9.87472656 4.26808594 -9.87472656 4.26808594 -11.0859375 4.4140625 C-16.15779404 4.99607882 -21.08243859 5.21867085 -26.1875 5.125 C-25.8575 4.135 -25.5275 3.145 -25.1875 2.125 C-16.72704733 0.20399104 -8.65319486 -0.12128467 0 0 Z " fill="#FEC033" transform="translate(91.1875,135.875)"/>
<path d="M0 0 C3.125 0.375 3.125 0.375 6 1 C6.02688151 2.64574566 6.04634123 4.29161413 6.0625 5.9375 C6.07410156 6.85402344 6.08570313 7.77054687 6.09765625 8.71484375 C6 11 6 11 5 12 C2.32941149 12.14115161 -0.32432238 12.04247107 -3 12 C-2.88601335 10.37419034 -2.75844341 8.74932843 -2.625 7.125 C-2.55539063 6.22007813 -2.48578125 5.31515625 -2.4140625 4.3828125 C-2 2 -2 2 0 0 Z " fill="#E9D09B" transform="translate(174,84)"/>
<path d="M0 0 C6.0546875 -0.1953125 6.0546875 -0.1953125 8 0 C8.66 0.66 9.32 1.32 10 2 C9.44444444 6.55555556 9.44444444 6.55555556 8 8 C6.33382885 8.04063832 4.66611905 8.042721 3 8 C3 9.65 3 11.3 3 13 C2.01 13 1.02 13 0 13 C0 8.71 0 4.42 0 0 Z " fill="#927450" transform="translate(97,144)"/>
<path d="M0 0 C-0.33 0.66 -0.66 1.32 -1 2 C0.32 2.33 1.64 2.66 3 3 C2.44054687 3.09796875 1.88109375 3.1959375 1.3046875 3.296875 C-6.27558388 4.71055905 -13.61219879 6.80707918 -21 9 C-21 8.01 -21 7.02 -21 6 C-21.66 5.67 -22.32 5.34 -23 5 C-19.00574773 3.64890646 -15.0051757 2.31834945 -11 1 C-10.26910156 0.75378906 -9.53820312 0.50757813 -8.78515625 0.25390625 C-5.52493777 -0.78051756 -3.23970533 -1.29588213 0 0 Z " fill="#F0B63A" transform="translate(66,139)"/>
<path d="M0 0 C5.28 0.33 10.56 0.66 16 1 C15 6 15 6 14 7 C8.26388889 7.27314815 8.26388889 7.27314815 6 7 C5.34 6.34 4.68 5.68 4 5 C4 4.01 4 3.02 4 2 C2.68 1.67 1.36 1.34 0 1 C0 0.67 0 0.34 0 0 Z " fill="#DE9C1C" transform="translate(80,173)"/>
<path d="M0 0 C6.6 0 13.2 0 20 0 C19.67 0.99 19.34 1.98 19 3 C9.43 3 -0.14 3 -10 3 C-10 2.67 -10 2.34 -10 2 C-6.7 2 -3.4 2 0 2 C0 1.34 0 0.68 0 0 Z " fill="#F4B122" transform="translate(91,137)"/>
<path d="M0 0 C2.75 1.5 2.75 1.5 6.75 5.5 C0.81 5.5 -5.13 5.5 -11.25 5.5 C-11.25 4.84 -11.25 4.18 -11.25 3.5 C-4.43962888 -0.68301983 -4.43962888 -0.68301983 0 0 Z " fill="#FFC63C" transform="translate(92.25,110.5)"/>
<path d="M0 0 C0.70125 0.00515625 1.4025 0.0103125 2.125 0.015625 C2.82625 0.01046875 3.5275 0.0053125 4.25 0 C6.125 0.265625 6.125 0.265625 8.125 2.265625 C8.25 4.890625 8.25 4.890625 8.125 7.265625 C7.465 6.935625 6.805 6.605625 6.125 6.265625 C4.20999697 6.10663646 4.20999697 6.10663646 2.125 6.140625 C1.42375 6.13804687 0.7225 6.13546875 0 6.1328125 C-1.96653775 6.15185264 -1.96653775 6.15185264 -3.875 7.265625 C-4 4.890625 -4 4.890625 -3.875 2.265625 C-1.875 0.265625 -1.875 0.265625 0 0 Z " fill="#E8D5A5" transform="translate(87.875,-0.265625)"/>
<path d="M0 0 C3.63 0 7.26 0 11 0 C11 0.99 11 1.98 11 3 C9.68 3 8.36 3 7 3 C7 6.3 7 9.6 7 13 C6.01 13 5.02 13 4 13 C4 9.7 4 6.4 4 3 C2.68 3 1.36 3 0 3 C0 2.01 0 1.02 0 0 Z " fill="#C7AE76" transform="translate(72,144)"/>
<path d="M0 0 C0.99 0.66 1.98 1.32 3 2 C2.01 2.66 1.02 3.32 0 4 C-1.53102807 5.61700972 -3.02789935 7.26666576 -4.5 8.9375 C-6.93847181 11.69703726 -9.35748468 14.43371108 -12 17 C-12.45278363 13.03524082 -12.36889356 11.47711141 -9.8828125 8.26171875 C-8.97273438 7.41222656 -8.06265625 6.56273437 -7.125 5.6875 C-6.22007813 4.82511719 -5.31515625 3.96273438 -4.3828125 3.07421875 C-2 1 -2 1 0 0 Z " fill="#D6AE63" transform="translate(36,23)"/>
<path d="M0 0 C2.5 0.125 2.5 0.125 3.5 1.125 C3.6875 3.5625 3.6875 3.5625 3.5 6.125 C2.84 6.785 2.18 7.445 1.5 8.125 C-2.03571429 7.58928571 -2.03571429 7.58928571 -3.5 6.125 C-3.625 3.625 -3.625 3.625 -3.5 1.125 C-2.5 0.125 -2.5 0.125 0 0 Z " fill="#3C201A" transform="translate(89.5,146.875)"/>
<path d="M0 0 C4.39158329 1.4638611 4.87947433 3.97831338 7 8 C6.34 8 5.68 8 5 8 C4.67 8.99 4.34 9.98 4 11 C1.69 8.03 -0.62 5.06 -3 2 C-2.01 1.34 -1.02 0.68 0 0 Z " fill="#D8A733" transform="translate(37,155)"/>
<path d="M0 0 C1.98 0 3.96 0 6 0 C4.68 0.33 3.36 0.66 2 1 C2 2.32 2 3.64 2 5 C3.98 4.67 5.96 4.34 8 4 C7.67 4.99 7.34 5.98 7 7 C5.35 7 3.7 7 2 7 C2 8.65 2 10.3 2 12 C1.34 12 0.68 12 0 12 C0 8.04 0 4.08 0 0 Z " fill="#F1DC94" transform="translate(98,145)"/>
<path d="M0 0 C0.94875 0.04125 1.8975 0.0825 2.875 0.125 C2.235625 0.434375 1.59625 0.74375 0.9375 1.0625 C-1.06110821 1.9595163 -1.06110821 1.9595163 -2.125 3.125 C-2.16884447 4.79108987 -2.1646713 6.45880554 -2.125 8.125 C-2.125 9.115 -2.125 10.105 -2.125 11.125 C-3.115 10.465 -4.105 9.805 -5.125 9.125 C-5.4375 5.625 -5.4375 5.625 -5.125 2.125 C-3.125 0.125 -3.125 0.125 0 0 Z " fill="#F6DE95" transform="translate(89.125,144.875)"/>
<path d="M0 0 C2.41821796 3.62732695 2.0586305 4.48350057 1.25 8.625 C1.06953125 9.60726562 0.8890625 10.58953125 0.703125 11.6015625 C0.47109375 12.39304687 0.2390625 13.18453125 0 14 C-0.99 14.495 -0.99 14.495 -2 15 C-1.85816304 13.24967156 -1.71136571 11.49974466 -1.5625 9.75 C-1.48128906 8.77546875 -1.40007813 7.8009375 -1.31640625 6.796875 C-1.04925416 4.43538247 -0.64628032 2.28098935 0 0 Z " fill="#B29758" transform="translate(10,68)"/>
<path d="M0 0 C2.96175123 0.61277612 4.38058783 1.25372522 7 3 C7 3.66 7 4.32 7 5 C6.01 5.33 5.02 5.66 4 6 C1.8125 4.75 1.8125 4.75 0 3 C0 2.01 0 1.02 0 0 Z " fill="#DCCFA9" transform="translate(138,19)"/>
<path d="M0 0 C3.96 0 7.92 0 12 0 C12 0.33 12 0.66 12 1 C10.02 1 8.04 1 6 1 C6 1.66 6 2.32 6 3 C4.02 3 2.04 3 0 3 C0 2.01 0 1.02 0 0 Z " fill="#FFB917" transform="translate(89,160)"/>
<path d="M0 0 C5.95703125 -0.29296875 5.95703125 -0.29296875 8 0 C8.99 0.99 9.98 1.98 11 3 C7.7 3 4.4 3 1 3 C0.67 2.01 0.34 1.02 0 0 Z " fill="#20070A" transform="translate(72,141)"/>
<path d="M0 0 C1.98 0 3.96 0 6 0 C5.34 1.32 4.68 2.64 4 4 C0.7 3.67 -2.6 3.34 -6 3 C-6 2.67 -6 2.34 -6 2 C-4.02 2 -2.04 2 0 2 C0 1.34 0 0.68 0 0 Z " fill="#DC9919" transform="translate(110,138)"/>
<path d="M0 0 C1.96838018 2.95257027 2.39061574 4.60485915 3 8 C3.33 8.66 3.66 9.32 4 10 C0.125 8.125 0.125 8.125 -1 7 C-1.125 4 -1.125 4 -1 1 C-0.67 0.67 -0.34 0.34 0 0 Z " fill="#BE8001" transform="translate(18,141)"/>
<path d="M0 0 C-1.49097658 3.7952131 -3.75700849 5.61042731 -7 8 C-6.44414399 4.1090079 -4.34122117 0 0 0 Z " fill="#DEC274" transform="translate(44,34)"/>
<path d="M0 0 C0 0.99 0 1.98 0 3 C-2.875 3.125 -2.875 3.125 -6 3 C-6.66 2.34 -7.32 1.68 -8 1 C-5.07175348 0.02391783 -3.04386724 -0.08226668 0 0 Z " fill="#FCB512" transform="translate(120,139)"/>
<path d="M0 0 C0.66 0.99 1.32 1.98 2 3 C0.35 4.32 -1.3 5.64 -3 7 C-2.25 2.25 -2.25 2.25 0 0 Z " fill="#D18F09" transform="translate(22,137)"/>
</svg>
